# xmcd
#
# Track frame offsets:
#	150
#	16762
#	29500
#	40402
#	58725
#	75577
#	91970
#	106817
#	123492
#	135920
#	150737
#	166655
#	177012
#	189825
#	202167
#
# Disc length: 3009 seconds
#
# Revision: 1
# Processed by: cddbd v1.5.1PL2 Copyright (c) Steve Scherf et al.
# Submitted via: audiograbber 1.83.01
#
DISCID=b40bbf0f
DTITLE=Gilbert Becaud - Artiste de l'egende
DYEAR=1900
DGENRE=Varietée Française
TTITLE0=Et maintenant
TTITLE1=L'orange
TTITLE2=Quand il est mort le poete
TTITLE3=Nathalie
TTITLE4=C'est en septembre
TTITLE5=L'important c'est la rose
TTITLE6=La solitude ça n'existe pas
TTITLE7=Le pommier à pommes
TTITLE8=Le petit oiseau de toutes les couleurs
TTITLE9=Un peu d'amour et d'amitie
TTITLE10=Le cap de bonne esperance
TTITLE11=Le jour ou la pluie viendra
TTITLE12=Les cerisiers sont blancs
TTITLE13=Je reviens te chercher
TTITLE14=Viens nous aider
EXTD=
EXTT0=
EXTT1=
EXTT2=
EXTT3=
EXTT4=
EXTT5=
EXTT6=
EXTT7=
EXTT8=
EXTT9=
EXTT10=
EXTT11=
EXTT12=
EXTT13=
EXTT14=
PLAYORDER=
